<?xml version="1.0" encoding="utf-8"?>
<!-- Generator: Adobe Illustrator 27.2.0, SVG Export Plug-In . SVG Version: 6.00 Build 0)  -->
<svg version="1.1" id="Layer_1" xmlns="http://www.w3.org/2000/svg" xmlns:xlink="http://www.w3.org/1999/xlink" x="0px" y="0px"
	 viewBox="0 0 159.4 159.9" style="enable-background:new 0 0 159.4 159.9;" xml:space="preserve">
<style type="text/css">
	.st0{fill:url(#SVGID_1_);}
	.st1{fill:#FFFFFF;}
</style>
<linearGradient id="SVGID_1_" gradientUnits="userSpaceOnUse" x1="156.0398" y1="-3.805" x2="-6.4669" y2="174.4918">
	<stop  offset="6.424581e-02" style="stop-color:#55B84E"/>
	<stop  offset="0.4768" style="stop-color:#2D7F40"/>
	<stop  offset="0.549" style="stop-color:#2C713D"/>
	<stop  offset="0.6735" style="stop-color:#285D37"/>
	<stop  offset="0.7931" style="stop-color:#234F32"/>
	<stop  offset="0.9047" style="stop-color:#20472F"/>
	<stop  offset="1" style="stop-color:#1F442E"/>
</linearGradient>
<path class="st0" d="M135.9,154.7H23.5c-10.3,0-18.6-8.3-18.6-18.6V23.7c0-10.3,8.3-18.6,18.6-18.6h112.4c10.3,0,18.6,8.3,18.6,18.6
	v112.4C154.5,146.4,146.2,154.7,135.9,154.7z"/>
<g>
	<path class="st1" d="M48,72.8L43.9,78H33.7c-7.1,0-12.3-4.5-12.3-10.4s5.2-10,12.3-10H48l-4.1,5.3H33.7c-3.4,0-6,2-6,5
		c0,2.9,2.6,4.9,6,4.9L48,72.8L48,72.8z"/>
	<path class="st1" d="M57.8,78l3.8-5.2h5.1c1.2,0,2.6,0,3.6,0.1c-0.5-0.8-1.4-2-2-2.9l-3.6-5.4L55,78h-7.5l13.1-18.5
		c0.8-1.2,2.1-2.3,4.1-2.3c1.9,0,3.2,1,4,2.3L81.5,78L57.8,78L57.8,78z"/>
	<path class="st1" d="M138,78h-6.3v-7.9h-12.2V78h-6.3V57.6h6.3v7.3h12.2v-7.3h6.3V78z"/>
	<path class="st1" d="M49.2,89.4c1.8,3.2,2.6,4.7,3.3,6.1c0.7-1.4,1.4-2.9,3.2-6l3.2-5.8c0.8-1.3,1.8-2.2,3.5-2.2
		c1.6,0,3,0.9,3.6,2.8l5.1,18h-6.3L63,95.2c-0.6-2.3-1.1-4-1.4-5.6c-0.7,1.4-1.4,3-2.9,5.7l-2.7,5.1c-1.1,2-2.1,2.3-3.6,2.3
		c-1.5,0-2.6-0.3-3.6-2.3L46,95.3c-1.5-2.8-2.2-4.2-2.9-5.6c-0.3,1.6-0.8,3.3-1.4,5.6l-1.9,7.1h-6.2l5.3-18c0.5-1.9,2-2.8,3.6-2.8
		c1.6,0,2.7,0.8,3.5,2.2L49.2,89.4z"/>
	<path class="st1" d="M79.9,102.3h-6.3V81.9h6.3V102.3z"/>
	<path class="st1" d="M102.8,90c5,0,7.6,1.9,7.6,5.6c0,4.2-2.6,6.6-8.8,6.6h-19l4.1-5.2h15.4c1.5,0,2.2-0.5,2.2-1.5
		c0-1.1-0.7-1.4-2.2-1.4H91c-5.2,0-7.6-2.3-7.6-5.9c0-3.9,2.6-6.3,8.8-6.3h17.8l-4.1,5.3H91.7c-1.4,0-2.2,0.4-2.2,1.4
		c0,1.1,0.7,1.4,2.2,1.4C91.7,90,102.8,90,102.8,90z"/>
	<path class="st1" d="M138,102.3h-6.3v-7.9h-12.2v7.9h-6.3V81.9h6.3v7.3h12.2v-7.3h6.3V102.3z"/>
	<g>
		<path class="st1" d="M102.8,65.6c5,0,7.6,1.9,7.6,5.6c0,4.2-2.6,6.6-8.8,6.6h-19l4.1-5.2h15.4c1.5,0,2.2-0.5,2.2-1.5
			c0-1.1-0.7-1.4-2.2-1.4H91.1c-5.2,0-7.6-2.3-7.6-5.9c0-3.9,2.6-6.3,8.8-6.3h17.8l-4.1,5.4H91.7c-1.4,0-2.2,0.4-2.2,1.4
			s0.7,1.4,2.2,1.4L102.8,65.6L102.8,65.6z"/>
	</g>
</g>
</svg>
