<?xml version="1.0" encoding="utf-8"?>
<!-- Generator: Adobe Illustrator 27.2.0, SVG Export Plug-In . SVG Version: 6.00 Build 0)  -->
<svg version="1.1" id="Layer_1" xmlns="http://www.w3.org/2000/svg" xmlns:xlink="http://www.w3.org/1999/xlink" x="0px" y="0px"
	 viewBox="0 0 300 31.3" style="enable-background:new 0 0 300 31.3;" xml:space="preserve">
<style type="text/css">
	.st0{fill:url(#SVGID_1_);}
	.st1{fill:url(#SVGID_00000016797699557081654190000000967345201273484703_);}
	.st2{fill:url(#SVGID_00000164506997664430761780000015228718765541561499_);}
	.st3{fill:#DDDDDD;}
	.st4{fill:url(#SVGID_00000018941719176538764730000001342917125455249070_);}
</style>
<g>
	
		<linearGradient id="SVGID_1_" gradientUnits="userSpaceOnUse" x1="129.8748" y1="59.7557" x2="-76.1051" y2="-20.2653" gradientTransform="matrix(1 0 0 -1 0 34)">
		<stop  offset="6.424581e-02" style="stop-color:#55B84E"/>
		<stop  offset="0.4768" style="stop-color:#2D7F40"/>
		<stop  offset="0.549" style="stop-color:#2C713D"/>
		<stop  offset="0.6735" style="stop-color:#285D37"/>
		<stop  offset="0.7931" style="stop-color:#234F32"/>
		<stop  offset="0.9047" style="stop-color:#20472F"/>
		<stop  offset="1" style="stop-color:#1F442E"/>
	</linearGradient>
	<path class="st0" d="M37.4,22.2l-5.4,7H18.5c-9.4,0-16.3-5.9-16.3-13.8S9.1,2.2,18.5,2.2h18.9l-5.4,7H18.5c-4.5,0-7.9,2.7-7.9,6.6
		c0,3.8,3.4,6.5,7.9,6.5h18.9V22.2z"/>
	
		<linearGradient id="SVGID_00000000921516510405319220000003200167012712675221_" gradientUnits="userSpaceOnUse" x1="135.9266" y1="44.1777" x2="-70.0531" y2="-35.8432" gradientTransform="matrix(1 0 0 -1 0 34)">
		<stop  offset="6.424581e-02" style="stop-color:#55B84E"/>
		<stop  offset="0.4768" style="stop-color:#2D7F40"/>
		<stop  offset="0.549" style="stop-color:#2C713D"/>
		<stop  offset="0.6735" style="stop-color:#285D37"/>
		<stop  offset="0.7931" style="stop-color:#234F32"/>
		<stop  offset="0.9047" style="stop-color:#20472F"/>
		<stop  offset="1" style="stop-color:#1F442E"/>
	</linearGradient>
	<path style="fill:url(#SVGID_00000000921516510405319220000003200167012712675221_);" d="M50.4,29.2l5-6.9h6.8c1.6,0,3.5,0,4.8,0.1
		c-0.7-1-1.9-2.6-2.7-3.9l-4.8-7.1L46.7,29.2h-9.9L54.2,4.7c1.1-1.6,2.8-3,5.4-3c2.5,0,4.2,1.3,5.3,3l16.9,24.4H50.4V29.2z"/>
	
		<linearGradient id="SVGID_00000101095391961884721540000012996408211215822270_" gradientUnits="userSpaceOnUse" x1="145.2088" y1="20.2847" x2="-60.771" y2="-59.7363" gradientTransform="matrix(1 0 0 -1 0 34)">
		<stop  offset="6.424581e-02" style="stop-color:#55B84E"/>
		<stop  offset="0.4768" style="stop-color:#2D7F40"/>
		<stop  offset="0.549" style="stop-color:#2C713D"/>
		<stop  offset="0.6735" style="stop-color:#285D37"/>
		<stop  offset="0.7931" style="stop-color:#234F32"/>
		<stop  offset="0.9047" style="stop-color:#20472F"/>
		<stop  offset="1" style="stop-color:#1F442E"/>
	</linearGradient>
	<path style="fill:url(#SVGID_00000101095391961884721540000012996408211215822270_);" d="M156.5,29.2h-8.3V18.8h-16.1v10.4h-8.4
		v-27h8.4v9.6h16.1V2.2h8.3V29.2z"/>
	<path class="st3" d="M180.3,12.2c2.4,4.2,3.4,6.2,4.4,8.1c0.9-1.9,1.9-3.9,4.3-8l4.3-7.7c1-1.7,2.4-2.9,4.6-2.9
		c2.1,0,4,1.2,4.7,3.7l6.8,23.8h-8.3l-2.5-9.4c-0.8-3.1-1.4-5.3-1.9-7.4c-0.9,1.9-1.9,4-3.8,7.5l-3.6,6.8c-1.4,2.7-2.8,3-4.8,3
		s-3.4-0.4-4.8-3l-3.6-6.8c-2-3.7-2.9-5.6-3.8-7.4c-0.4,2.1-1,4.4-1.8,7.4l-2.5,9.4h-8.2l7-23.8c0.7-2.5,2.6-3.7,4.7-3.7
		c2.1,0,3.6,1.1,4.6,2.9L180.3,12.2z"/>
	<path class="st3" d="M220.9,29.2h-8.4v-27h8.4V29.2z"/>
	<path class="st3" d="M251.2,12.9c6.6,0,10.1,2.5,10.1,7.4c0,5.5-3.4,8.8-11.6,8.8h-25.2l5.4-6.9h20.4c2,0,2.9-0.6,2.9-2
		s-0.9-1.9-2.9-1.9h-14.7c-6.9,0-10.1-3.1-10.1-7.8c0-5.1,3.4-8.4,11.6-8.4h23.5l-5.4,7h-18.7c-1.9,0-2.9,0.5-2.9,1.9
		s0.9,1.9,2.9,1.9C236.5,12.9,251.2,12.9,251.2,12.9z"/>
	<path class="st3" d="M297.8,29.2h-8.3V18.8h-16.1v10.4H265v-27h8.4v9.6h16.1V2.2h8.3V29.2z"/>
	<g>
		
			<linearGradient id="SVGID_00000077307477758247133790000006287006037308235136_" gradientUnits="userSpaceOnUse" x1="140.1286" y1="33.3613" x2="-65.8512" y2="-46.6596" gradientTransform="matrix(1 0 0 -1 0 34)">
			<stop  offset="6.424581e-02" style="stop-color:#55B84E"/>
			<stop  offset="0.4768" style="stop-color:#2D7F40"/>
			<stop  offset="0.549" style="stop-color:#2C713D"/>
			<stop  offset="0.6735" style="stop-color:#285D37"/>
			<stop  offset="0.7931" style="stop-color:#234F32"/>
			<stop  offset="0.9047" style="stop-color:#20472F"/>
			<stop  offset="1" style="stop-color:#1F442E"/>
		</linearGradient>
		<path style="fill:url(#SVGID_00000077307477758247133790000006287006037308235136_);" d="M109.9,12.7c6.6,0,10.1,2.5,10.1,7.4
			c0,5.5-3.4,8.8-11.6,8.8H83.3l5.4-6.9h20.4c2,0,2.9-0.6,2.9-2s-0.9-1.9-2.9-1.9H94.4c-6.9,0-10.1-3.1-10.1-7.8
			c0-5.1,3.4-8.4,11.6-8.4h23.5L114,9H95.2c-1.9,0-2.9,0.5-2.9,1.9s0.9,1.9,2.9,1.9L109.9,12.7L109.9,12.7z"/>
	</g>
</g>
</svg>
